<svg width="118" height="31" viewBox="0 0 118 31" fill="none" xmlns="http://www.w3.org/2000/svg">
<path d="M17.5463 14.5245C17.559 13.5136 17.8219 12.5225 18.3104 11.6433C18.799 10.7641 19.4974 10.0254 20.3405 9.49595C19.8049 8.7146 19.0982 8.07158 18.2767 7.61797C17.4552 7.16435 16.5415 6.91263 15.608 6.8828C13.6169 6.66934 11.6866 8.09974 10.6719 8.09974C9.63764 8.09974 8.07543 6.904 6.39318 6.93935C5.30506 6.97526 4.2446 7.29844 3.31512 7.87741C2.38565 8.45638 1.61886 9.2714 1.08946 10.243C-1.20376 14.2983 0.506778 20.2581 2.70349 23.5361C3.80255 25.1412 5.08704 26.9342 6.76777 26.8706C8.41246 26.8009 9.02673 25.7994 11.012 25.7994C12.9789 25.7994 13.5552 26.8706 15.27 26.8301C17.0348 26.8009 18.1468 25.2179 19.2073 23.5976C19.9969 22.4539 20.6046 21.1898 21.0077 19.8523C19.9824 19.4093 19.1074 18.6679 18.4919 17.7205C17.8763 16.7731 17.5475 15.6615 17.5463 14.5245V14.5245Z" fill="white" fill-opacity="0.8"/>
<path d="M14.3071 4.72721C15.2694 3.54736 15.7434 2.03086 15.6286 0.499756C14.1585 0.657465 12.8005 1.37511 11.8253 2.50969C11.3484 3.06397 10.9832 3.7088 10.7505 4.40732C10.5178 5.10584 10.4222 5.84435 10.4691 6.58064C11.2044 6.58837 11.9319 6.42559 12.5967 6.10454C13.2615 5.7835 13.8463 5.31256 14.3071 4.72721Z" fill="white" fill-opacity="0.8"/>
<path d="M38.3362 22.8081H32.7237L31.3758 26.8731H28.9985L34.3147 11.8337H36.7846L42.1007 26.8731H39.6829L38.3362 22.8081ZM33.3049 20.9323H37.7538L35.5607 14.3352H35.4993L33.3049 20.9323Z" fill="white" fill-opacity="0.8"/>
<path d="M53.5836 21.3906C53.5836 24.7979 51.798 26.9871 49.1035 26.9871C48.4209 27.0236 47.7421 26.863 47.1447 26.5237C46.5473 26.1844 46.0556 25.6802 45.7258 25.0687H45.6748V30.4997H43.4712V15.9075H45.6042V17.7313H45.6447C45.9897 17.1227 46.4898 16.6211 47.0917 16.2798C47.6936 15.9384 48.3749 15.7701 49.063 15.7928C51.7876 15.7928 53.5836 17.9926 53.5836 21.3906ZM51.3186 21.3906C51.3186 19.1706 50.1954 17.7111 48.4817 17.7111C46.798 17.7111 45.6655 19.2014 45.6655 21.3906C45.6655 23.5998 46.798 25.0794 48.4817 25.0794C50.1954 25.0794 51.3186 23.6306 51.3186 21.3906Z" fill="white" fill-opacity="0.8"/>
<path d="M65.398 21.3905C65.398 24.7979 63.6125 26.9871 60.9179 26.9871C60.2354 27.0236 59.5565 26.863 58.9592 26.5237C58.3618 26.1844 57.87 25.6802 57.5402 25.0687H57.4892V30.4997H55.2856V15.9075H57.4186V17.7312H57.4591C57.8041 17.1227 58.3042 16.6211 58.9061 16.2798C59.508 15.9384 60.1893 15.7701 60.8774 15.7928C63.6021 15.7928 65.398 17.9926 65.398 21.3905ZM63.1331 21.3905C63.1331 19.1706 62.0099 17.7111 60.2961 17.7111C58.6125 17.7111 57.48 19.2013 57.48 21.3905C57.48 23.5998 58.6125 25.0794 60.2961 25.0794C62.0099 25.0794 63.1331 23.6306 63.1331 21.3905H63.1331Z" fill="white" fill-opacity="0.8"/>
<path d="M73.2074 22.6815C73.3707 24.1729 74.7892 25.1522 76.7275 25.1522C78.5849 25.1522 79.9212 24.1729 79.9212 22.8281C79.9212 21.6608 79.1152 20.9619 77.2069 20.4828L75.2986 20.0133C72.5948 19.3463 71.3396 18.0547 71.3396 15.959C71.3396 13.3641 73.5536 11.5818 76.6974 11.5818C79.8088 11.5818 81.9418 13.3641 82.0136 15.959H79.7891C79.656 14.4581 78.4413 13.5522 76.6661 13.5522C74.891 13.5522 73.6763 14.4688 73.6763 15.8029C73.6763 16.8661 74.4522 17.4918 76.35 17.9707L77.9723 18.3776C80.9934 19.1073 82.2486 20.3468 82.2486 22.5466C82.2486 25.3603 80.0543 27.1225 76.5642 27.1225C73.2988 27.1225 71.0941 25.4017 70.9517 22.6814L73.2074 22.6815Z" fill="white" fill-opacity="0.8"/>
<path d="M87.0039 13.3142V15.9091H89.0454V17.6914H87.0039V23.7362C87.0039 24.6753 87.4127 25.1129 88.3101 25.1129C88.5524 25.1086 88.7944 25.0912 89.0349 25.0608V26.8325C88.6315 26.9095 88.2214 26.9444 87.811 26.9366C85.6375 26.9366 84.7899 26.1028 84.7899 23.9763V17.6914H83.229V15.9091H84.7899V13.3142H87.0039Z" fill="white" fill-opacity="0.8"/>
<path d="M90.227 21.391C90.227 17.9411 92.2164 15.7732 95.3185 15.7732C98.4311 15.7732 100.411 17.941 100.411 21.391C100.411 24.8505 98.4415 27.0089 95.3185 27.0089C92.1966 27.0089 90.227 24.8505 90.227 21.391ZM98.1659 21.391C98.1659 19.0245 97.1041 17.6277 95.3185 17.6277C93.533 17.6277 92.4723 19.0351 92.4723 21.391C92.4723 23.7671 93.533 25.1532 95.3185 25.1532C97.1041 25.1532 98.1659 23.7671 98.1659 21.391H98.1659Z" fill="white" fill-opacity="0.8"/>
<path d="M102.229 15.9074H104.331V17.7737H104.382C104.524 17.1908 104.858 16.6757 105.328 16.3149C105.799 15.9542 106.376 15.7698 106.964 15.7927C107.218 15.7918 107.471 15.8199 107.719 15.8767V17.9819C107.398 17.8818 107.064 17.8359 106.729 17.8459C106.409 17.8326 106.09 17.8902 105.793 18.0149C105.497 18.1395 105.231 18.3281 105.013 18.5677C104.794 18.8074 104.63 19.0924 104.53 19.4033C104.429 19.7141 104.396 20.0434 104.433 20.3686V26.8723H102.229L102.229 15.9074Z" fill="white" fill-opacity="0.8"/>
<path d="M117.878 23.6524C117.581 25.6429 115.683 27.0089 113.255 27.0089C110.132 27.0089 108.194 24.8717 108.194 21.4431C108.194 18.0038 110.143 15.7732 113.163 15.7732C116.133 15.7732 118 17.8571 118 21.1817V21.9528H110.418V22.0888C110.383 22.4924 110.433 22.8989 110.563 23.2814C110.694 23.6639 110.903 24.0137 111.176 24.3074C111.449 24.6012 111.78 24.8322 112.148 24.9852C112.515 25.1381 112.91 25.2095 113.306 25.1946C113.827 25.2445 114.349 25.1213 114.796 24.8434C115.243 24.5655 115.59 24.1478 115.785 23.6524L117.878 23.6524ZM110.429 20.3798H115.796C115.816 20.017 115.762 19.6539 115.638 19.3133C115.513 18.9728 115.322 18.6621 115.074 18.4008C114.827 18.1394 114.53 17.9331 114.201 17.7948C113.872 17.6565 113.518 17.5891 113.163 17.5969C112.804 17.5947 112.448 17.6652 112.116 17.8041C111.784 17.9431 111.482 18.1478 111.228 18.4066C110.974 18.6653 110.772 18.9729 110.635 19.3116C110.498 19.6502 110.428 20.0133 110.429 20.3798V20.3798Z" fill="white" fill-opacity="0.8"/>
<path d="M31.3747 7.06569C32.264 5.69716 32.347 3.65041 32.347 2.7421V2.37877H34.4339V7.06569H31.3747ZM29.7739 7.06569V9.22143H30.5447V7.76812H35.3113V9.22143H36.0821V7.06569H35.2402V1.67634H31.5525V2.66943C31.5525 3.49297 31.517 5.72138 30.5091 7.06569H29.7739Z" fill="white" fill-opacity="0.8"/>
<path d="M36.9169 4.69195C36.9169 6.53281 38.3161 7.91345 40.0591 7.91345C41.8021 7.91345 43.2132 6.53281 43.2132 4.69195C43.2132 2.88743 41.8021 1.53101 40.0591 1.53101C38.3161 1.53101 36.9169 2.88743 36.9169 4.69195ZM37.7469 4.69195C37.7469 3.31131 38.7785 2.26977 40.0591 2.26977C41.3397 2.26977 42.3832 3.31131 42.3832 4.69195C42.3832 6.12104 41.3397 7.16258 40.0591 7.16258C38.7785 7.16258 37.7469 6.12104 37.7469 4.69195Z" fill="white" fill-opacity="0.8"/>
<path d="M44.3162 4.72829C44.3162 6.61759 45.6798 7.91345 47.4466 7.91345C48.3596 7.91345 49.2489 7.53801 49.7706 6.94458L49.403 6.32692C48.9287 6.8598 48.1817 7.16258 47.494 7.16258C46.166 7.16258 45.1462 6.15737 45.1462 4.72829C45.1462 3.27498 46.166 2.26977 47.4703 2.26977C48.1343 2.26977 48.7983 2.58465 49.2133 3.02065L49.6283 2.40299C49.0947 1.80956 48.2291 1.53101 47.4466 1.53101C45.6917 1.53101 44.3162 2.85109 44.3162 4.72829Z" fill="white" fill-opacity="0.8"/>
<path d="M52.6281 7.76812H53.4344V2.40299H55.6162V1.67634H50.4582V2.40299H52.6281V7.76812Z" fill="white" fill-opacity="0.8"/>
<path d="M56.4278 9.2941L56.1195 9.94809C56.1195 9.94809 56.5582 10.3114 57.1748 10.3114C57.9693 10.3114 58.574 9.81487 58.8823 9.03977L61.8229 1.67634H60.9573L59.238 6.12104C59.1194 6.42381 59.0364 6.76292 59.0364 6.76292H59.0127C59.0127 6.76292 58.906 6.42381 58.7874 6.12104L57.0444 1.67634H56.1551L58.6333 7.70757L58.2775 8.57955C58.0404 9.13665 57.661 9.57265 57.1392 9.57265C56.7598 9.57265 56.4278 9.2941 56.4278 9.2941Z" fill="white" fill-opacity="0.8"/>
<path d="M63.096 7.76812H63.9023V2.40299H67.2817V7.76812H68.088V1.67634H63.096V7.76812Z" fill="black" fill-opacity="0.8"/>
<path d="M70.009 7.76812H70.8153V5.00684H74.3013V7.76812H75.1076V1.67634H74.3013V4.28018H70.8153V1.67634H70.009V7.76812Z" fill="white" fill-opacity="0.8"/>
<path d="M76.623 4.69195C76.623 6.53281 78.0222 7.91345 79.7652 7.91345C81.5082 7.91345 82.9193 6.53281 82.9193 4.69195C82.9193 2.88743 81.5082 1.53101 79.7652 1.53101C78.0222 1.53101 76.623 2.88743 76.623 4.69195ZM77.453 4.69195C77.453 3.31131 78.4846 2.26977 79.7652 2.26977C81.0458 2.26977 82.0892 3.31131 82.0892 4.69195C82.0892 6.12104 81.0458 7.16258 79.7652 7.16258C78.4846 7.16258 77.453 6.12104 77.453 4.69195Z" fill="white" fill-opacity="0.8"/>
<path d="M87.3898 7.76812H89.6664C91.0063 7.76812 91.8245 7.11413 91.8245 6.06049C91.8245 5.34594 91.3857 4.75251 90.615 4.59506V4.57084C91.196 4.35285 91.5162 3.8563 91.5162 3.22653C91.5162 2.22133 90.7573 1.67634 89.5478 1.67634H87.3898V7.76812ZM88.1961 4.31651V2.3061H89.4174C90.2593 2.3061 90.6861 2.62099 90.6861 3.27498C90.6861 3.92897 90.2711 4.31651 89.4648 4.31651H88.1961ZM88.1961 7.12624V4.94628H89.5478C90.4727 4.94628 90.9944 5.33383 90.9944 6.04837C90.9944 6.70236 90.5439 7.12624 89.5597 7.12624H88.1961Z" fill="white" fill-opacity="0.8"/>
</svg>
