<svg width="124" height="31" viewBox="0 0 124 31" fill="none" xmlns="http://www.w3.org/2000/svg">
<path d="M25.9977 14.1119C26.6437 14.5006 26.6437 15.4372 25.9977 15.8258L8.37066 26.4289C7.70415 26.8298 6.8552 26.3498 6.8552 25.572L6.8552 4.36574C6.8552 3.58795 7.70416 3.10791 8.37066 3.50883L25.9977 14.1119Z" fill="white" fill-opacity="0.8"/>
<path d="M21.1917 11.0711L7.06483 26.6553M21.1917 18.8632L7.06483 3.27905" stroke="#121212"/>
<path d="M63.1174 17.049C60.5806 17.049 58.5723 19.0336 58.5723 21.79C58.5723 24.4361 60.5806 26.531 63.1174 26.531C65.6542 26.531 67.6625 24.5464 67.6625 21.79C67.6625 19.0336 65.5485 17.049 63.1174 17.049ZM63.1174 24.5464C61.7433 24.5464 60.5806 23.3336 60.5806 21.6797C60.5806 20.0259 61.7433 18.8131 63.1174 18.8131C64.4915 18.8131 65.6542 19.9156 65.6542 21.6797C65.6542 23.4438 64.4915 24.5464 63.1174 24.5464ZM53.2873 17.049C50.7505 17.049 48.7423 19.0336 48.7423 21.79C48.7423 24.4361 50.7505 26.531 53.2873 26.531C55.8241 26.531 57.8324 24.5464 57.8324 21.79C57.7267 19.0336 55.7184 17.049 53.2873 17.049ZM53.2873 24.5464C51.9132 24.5464 50.7506 23.3336 50.7506 21.6797C50.7506 20.0259 51.9132 18.8131 53.2873 18.8131C54.6614 18.8131 55.8241 19.9156 55.8241 21.6797C55.8241 23.4438 54.6614 24.5464 53.2873 24.5464ZM41.5547 18.4823V20.4669H46.0998C45.9941 21.5695 45.5713 22.4515 45.0428 23.0028C44.4086 23.6643 43.3516 24.4361 41.5547 24.4361C38.7008 24.4361 36.5868 22.1208 36.5868 19.1438C36.5868 16.1669 38.8065 13.8516 41.5547 13.8516C43.0345 13.8516 44.1972 14.5131 45.0428 15.2849L46.4169 13.8516C45.2542 12.749 43.7744 11.8669 41.6604 11.8669C37.8552 11.8669 34.5785 15.1746 34.5785 19.1438C34.5785 23.1131 37.8552 26.4207 41.6604 26.4207C43.7744 26.4207 45.2542 25.7592 46.5226 24.3259C47.791 23.0028 48.2138 21.1285 48.2138 19.6951C48.2138 19.2541 48.2138 18.8131 48.1081 18.4823H41.5547V18.4823ZM89.4367 20.0259C89.0139 18.9233 87.9569 17.049 85.6315 17.049C83.3061 17.049 81.4035 18.9233 81.4035 21.79C81.4035 24.4361 83.3061 26.531 85.8429 26.531C87.8512 26.531 89.1196 25.2079 89.5424 24.4361L88.0626 23.3336C87.5341 24.1054 86.8999 24.6566 85.8429 24.6566C84.7859 24.6566 84.1517 24.2156 83.6232 23.2233L89.6481 20.5772L89.4367 20.0259ZM83.3061 21.5695C83.3061 19.8054 84.6802 18.8131 85.6315 18.8131C86.3714 18.8131 87.1113 19.2541 87.3227 19.8054L83.3061 21.5695ZM78.4439 26.09H80.4522V12.308H78.4439V26.09ZM75.1672 18.0413C74.6387 17.49 73.7931 16.9387 72.7361 16.9387C70.5164 16.9387 68.4024 19.0336 68.4024 21.6797C68.4024 24.3259 70.4107 26.3105 72.7361 26.3105C73.7931 26.3105 74.6387 25.7592 75.0615 25.2079H75.1672V25.8695C75.1672 27.6336 74.2159 28.6259 72.7361 28.6259C71.5734 28.6259 70.7278 27.7438 70.5164 26.972L68.8252 27.7438C69.3537 28.9566 70.6221 30.5002 72.8418 30.5002C75.1672 30.5002 77.0698 29.0669 77.0698 25.649V17.2695H75.1672V18.0413V18.0413ZM72.9475 24.5464C71.5734 24.5464 70.4107 23.3336 70.4107 21.6797C70.4107 20.0259 71.5734 18.8131 72.9475 18.8131C74.3216 18.8131 75.3786 20.0259 75.3786 21.6797C75.3786 23.3336 74.3216 24.5464 72.9475 24.5464ZM98.7382 12.308H93.9817V26.09H95.99V20.9079H98.7382C100.958 20.9079 103.072 19.2541 103.072 16.608C103.072 13.9618 100.852 12.308 98.7382 12.308ZM98.7382 19.0336H95.8843V14.2926H98.7382C100.218 14.2926 101.064 15.6156 101.064 16.608C101.064 17.7105 100.218 19.0336 98.7382 19.0336ZM110.894 17.049C109.414 17.049 107.934 17.7105 107.406 19.1438L109.203 19.9156C109.625 19.1438 110.26 18.9233 110.999 18.9233C112.056 18.9233 113.008 19.5849 113.113 20.6874V20.7977C112.796 20.5772 111.951 20.2464 111.105 20.2464C109.203 20.2464 107.3 21.349 107.3 23.3336C107.3 25.2079 108.885 26.4207 110.577 26.4207C111.951 26.4207 112.585 25.7592 113.113 25.0977H113.219V26.2002H115.122V20.9079C114.91 18.372 113.219 17.049 110.894 17.049ZM110.682 24.5464C110.048 24.5464 109.097 24.2156 109.097 23.3336C109.097 22.231 110.26 21.9002 111.211 21.9002C112.056 21.9002 112.479 22.1208 113.008 22.3413C112.902 23.6643 111.845 24.5464 110.682 24.5464ZM121.886 17.2695L119.667 23.2233H119.561L117.236 17.2695H115.122L118.61 25.649L116.601 30.2797H118.61L124 17.2695H121.886V17.2695ZM104.129 26.09H106.137V12.308H104.129V26.09Z" fill="white" fill-opacity="0.8"/>
<path d="M36.317 6.17669C37.2112 4.77299 37.2947 2.67364 37.2947 1.74197V1.36931H39.3931V6.17669H36.317ZM34.7074 6.17669V8.38784H35.4824V6.89718H40.2754V8.38784H41.0504V6.17669H40.2039V0.648822H36.4958V1.66744C36.4958 2.51215 36.4601 4.79783 35.4466 6.17669H34.7074Z" fill="white" fill-opacity="0.8"/>
<path d="M41.8898 3.74195C41.8898 5.63012 43.2968 7.04625 45.0494 7.04625C46.8021 7.04625 48.2209 5.63012 48.2209 3.74195C48.2209 1.89104 46.8021 0.499756 45.0494 0.499756C43.2968 0.499756 41.8898 1.89104 41.8898 3.74195ZM42.7244 3.74195C42.7244 2.32582 43.7617 1.25751 45.0494 1.25751C46.3371 1.25751 47.3863 2.32582 47.3863 3.74195C47.3863 5.20776 46.3371 6.27607 45.0494 6.27607C43.7617 6.27607 42.7244 5.20776 42.7244 3.74195Z" fill="white" fill-opacity="0.8"/>
<path d="M49.33 3.77921C49.33 5.71707 50.7012 7.04625 52.4777 7.04625C53.3958 7.04625 54.29 6.66116 54.8146 6.05247L54.445 5.41894C53.9681 5.96552 53.2169 6.27607 52.5254 6.27607C51.19 6.27607 50.1646 5.24503 50.1646 3.77921C50.1646 2.28855 51.19 1.25751 52.5015 1.25751C53.1692 1.25751 53.8369 1.58049 54.2542 2.02768L54.6715 1.39415C54.135 0.785466 53.2646 0.499756 52.4777 0.499756C50.7131 0.499756 49.33 1.85377 49.33 3.77921Z" fill="white" fill-opacity="0.8"/>
<path d="M57.6879 6.89718H58.4987V1.39415H60.6925V0.648822H55.506V1.39415H57.6879V6.89718Z" fill="white" fill-opacity="0.8"/>
<path d="M61.5086 8.46237L61.1986 9.13317C61.1986 9.13317 61.6397 9.50584 62.2597 9.50584C63.0585 9.50584 63.6666 8.99653 63.9766 8.20151L66.9335 0.648822H66.0631L64.3343 5.20776C64.2151 5.51832 64.1316 5.86614 64.1316 5.86614H64.1078C64.1078 5.86614 64.0004 5.51832 63.8812 5.20776L62.1285 0.648822H61.2343L63.7262 6.83507L63.3685 7.72947C63.1301 8.30089 62.7485 8.74808 62.2239 8.74808C61.8424 8.74808 61.5086 8.46237 61.5086 8.46237Z" fill="white" fill-opacity="0.8"/>
<path d="M68.2136 6.89718H69.0244V1.39415H72.4224V6.89718H73.2332V0.648822H68.2136V6.89718Z" fill="white" fill-opacity="0.8"/>
<path d="M75.1648 6.89718H75.9755V4.06492H79.4809V6.89718H80.2916V0.648822H79.4809V3.31959H75.9755V0.648822H75.1648V6.89718Z" fill="white" fill-opacity="0.8"/>
<path d="M81.8154 3.74195C81.8154 5.63012 83.2223 7.04625 84.9749 7.04625C86.7276 7.04625 88.1464 5.63012 88.1464 3.74195C88.1464 1.89104 86.7276 0.499756 84.9749 0.499756C83.2223 0.499756 81.8154 1.89104 81.8154 3.74195ZM82.65 3.74195C82.65 2.32582 83.6873 1.25751 84.9749 1.25751C86.2626 1.25751 87.3118 2.32582 87.3118 3.74195C87.3118 5.20776 86.2626 6.27607 84.9749 6.27607C83.6873 6.27607 82.65 5.20776 82.65 3.74195Z" fill="white" fill-opacity="0.8"/>
<path d="M92.6417 6.89718H94.9309C96.2781 6.89718 97.1008 6.22638 97.1008 5.14565C97.1008 4.41274 96.6597 3.80406 95.8847 3.64257V3.61772C96.4689 3.39412 96.7908 2.88481 96.7908 2.23886C96.7908 1.20782 96.0278 0.648822 94.8116 0.648822H92.6417V6.89718ZM93.4524 3.35686V1.29478H94.6805C95.527 1.29478 95.9562 1.61775 95.9562 2.28855C95.9562 2.95935 95.5389 3.35686 94.7282 3.35686H93.4524ZM93.4524 6.2388V4.00281H94.8116C95.7416 4.00281 96.2662 4.40032 96.2662 5.13323C96.2662 5.80403 95.8131 6.2388 94.8235 6.2388H93.4524Z" fill="white" fill-opacity="0.8"/>
</svg>
